<svg xmlns="http://www.w3.org/2000/svg" viewBox="0 0 1218.06 1080"><defs><style>.cls-1{fill:#22257b;}</style></defs><title>Colored-LogoMark</title><g id="Layer_2_copy" data-name="Layer 2 copy"><polygon class="cls-1" points="378.3 412.23 609.03 263.55 609.03 366.09 501.36 443 471.8 426.28 583.39 350.71 583.39 309.69 414.19 427.62 609.03 560.92 609.03 673.72 378.3 525.03 378.3 484.01 578.26 617.32 578.26 576.3 378.3 443 378.3 412.23"/><polygon class="cls-1" points="839.75 667.77 609.03 816.46 609.03 713.91 716.7 637 746.25 653.72 634.66 729.29 634.66 770.31 803.86 652.38 609.03 519.08 609.03 406.28 839.75 554.97 839.75 595.99 639.79 462.68 639.79 503.7 839.75 637 839.75 667.77"/></g></svg>