<svg xmlns="http://www.w3.org/2000/svg" viewBox="0 0 1218.06 1080"><defs><style>.cls-1{fill:#22257b;}</style></defs><title>Colored-Vertical</title><g id="Layer_2_copy" data-name="Layer 2 copy"><polygon class="cls-1" points="476.19 352.13 609.03 266.53 609.03 325.57 547.04 369.85 530.02 360.22 594.27 316.71 594.27 293.1 496.86 360.99 609.03 437.74 609.03 502.68 476.19 417.08 476.19 393.46 591.32 470.21 591.32 446.59 476.19 369.85 476.19 352.13"/><polygon class="cls-1" points="741.86 499.25 609.03 584.86 609.03 525.82 671.02 481.54 688.03 491.16 623.79 534.67 623.79 558.29 721.2 490.4 609.03 413.65 609.03 348.71 741.86 434.31 741.86 457.93 626.74 381.18 626.74 404.79 741.86 481.54 741.86 499.25"/><path class="cls-1" d="M395.22,657.11c-2.38-12.39-12.62-19.26-24.82-19.26-16.51,0-28.85,12.76-28.85,36,0,23.42,12.39,36,28.8,36,12.11,0,22.39-6.73,24.87-19l14.59,0C406.68,709.85,391.3,723,370.26,723c-24.88,0-43.06-18.56-43.06-49.18s18.28-49.18,43.06-49.18c20.24,0,36.28,12,39.55,32.44Z"/><path class="cls-1" d="M419.48,686.15C419.48,663.8,432.71,649,453,649s33.48,14.82,33.48,37.17-13.23,37-33.48,37S419.48,708.36,419.48,686.15Zm52.83,0c0-13.74-6.17-25.43-19.31-25.43s-19.4,11.69-19.4,25.43,6.17,25.34,19.4,25.34S472.31,699.89,472.31,686.1Z"/><path class="cls-1" d="M495.58,686c0-23.28,12.77-37,30.11-37,13.37,0,18.14,8.13,20.67,12.58h.84V626h14v95.75H547.53V710.55h-1.17c-2.53,4.58-7.67,12.58-20.76,12.58C508.16,723.13,495.58,709.2,495.58,686Zm51.85-.14c0-15-6.54-25-18.75-25-12.62,0-19,10.71-19,25s6.5,25.39,19,25.39C540.75,711.21,547.43,700.92,547.43,685.82Z"/><path class="cls-1" d="M574.59,686.29c0-22.07,13.18-37.31,33.19-37.31,16.27,0,31.79,10.14,31.79,36.09v5H588.52c.37,13.84,8.41,21.6,20.38,21.6,8,0,14-3.46,16.55-10.24l13.23,2.38c-3.17,11.69-14.25,19.41-29.92,19.41C587.58,723.18,574.59,708.59,574.59,686.29Zm51.28-6.73c0-11-7.15-19-18-19-11.36,0-18.74,8.83-19.3,19Z"/><path class="cls-1" d="M697.35,649.91h14v71.82H697.63V709.29h-.75c-3.32,7.67-10.66,13.37-21.46,13.37-13.79,0-23.56-9.26-23.56-27.07V649.91h14v44c0,9.77,6,16,14.63,16,7.86,0,16.93-5.8,16.88-18Z"/><path class="cls-1" d="M725.06,630.51a8.85,8.85,0,0,1,17.68,0c0,4.58-4,8.32-8.84,8.32A8.62,8.62,0,0,1,725.06,630.51Zm1.78,19.4h14v71.82h-14Z"/><path class="cls-1" d="M770.3,721.73h-14V649.91h13.41V661.6h.89C774,654,781,649,791.81,649c14.68,0,24.45,9.3,24.45,27.07v45.68h-14v-44c0-10.42-5.75-16.64-15.24-16.64-9.72,0-16.74,6.54-16.74,18Z"/><path class="cls-1" d="M828.45,686.15c0-22.35,13.24-37.17,33.48-37.17s33.48,14.82,33.48,37.17-13.24,37-33.48,37S828.45,708.36,828.45,686.15Zm52.84,0c0-13.74-6.18-25.43-19.31-25.43s-19.41,11.69-19.41,25.43,6.18,25.34,19.41,25.34S881.29,699.89,881.29,686.1Z"/><path class="cls-1" d="M458.46,763.43c-.77-4.42-4.29-7-8.79-7-6.05,0-10.31,4.64-10.31,13s4.3,13,10.29,13c4.43,0,8-2.44,8.81-6.77l6.75,0c-1,7-6.86,12.74-15.65,12.74-9.74,0-16.93-7.06-16.93-19s7.28-19,16.93-19c8.2,0,14.52,4.77,15.65,13Z"/><path class="cls-1" d="M494.29,788.43c-9.71,0-17-7.06-17-19s7.28-19,17-19,17,7,17,19S504,788.43,494.29,788.43Zm0-32c-6,0-10.26,4.57-10.26,13s4.25,13,10.26,13,10.25-4.57,10.25-13S500.32,756.46,494.29,756.46Z"/><path class="cls-1" d="M532.7,751l11,26.78h.43l11-26.78h8.19v37h-6.42V762.53h-.35l-10.21,25.29h-4.8l-10.22-25.35h-.34v25.45H524.5V751Z"/><path class="cls-1" d="M586.32,751l11,26.78h.43l11-26.78h8.2v37h-6.43V762.53h-.34l-10.22,25.29h-4.8L584.9,762.47h-.35v25.45h-6.42V751Z"/><path class="cls-1" d="M661.75,751V775.4c0,8.37-6.46,13.08-15,13.08s-15-4.71-15-13.08V751h6.7v24.27c0,4.57,3.66,7.22,8.3,7.22s8.32-2.65,8.32-7.22V751Z"/><path class="cls-1" d="M706.3,787.92h-6l-17.42-25.18h-.31v25.18h-6.69V751h6l17.4,25.2h.33V751h6.66Z"/><path class="cls-1" d="M727.14,787.92h-6.7V751h6.7Z"/><path class="cls-1" d="M739.66,751h29.49v5.61H757.73v31.35h-6.65V756.57H739.66Z"/><path class="cls-1" d="M786.73,751l9,16.35h.36l9-16.35h7.56l-13.45,23.17v13.79h-6.68V774.13L779.17,751Z"/></g></svg>